<svg xmlns="http://www.w3.org/2000/svg" version="1.1" xmlns:xlink="http://www.w3.org/1999/xlink" viewBox="0 0 564 45">
  <svg xml:space="preserve" width="564" height="45" data-version="2" data-id="lg_CrqAJloHS9PYNNkRWd" viewBox="0 0 564 45">
    <rect width="100%" height="100%" fill="transparent"></rect>
    <path fill="#263aff" d="M30.36 43.57q-12.88 0-18.98-5.47t-6.1-15.62q0-10.2 6.1-16.13Q17.48.43 30.36.43q18.01 0 24.11 12.36-5.13 1.77-12.03 5.31-1.65-3.2-5.21-4.74-3.56-1.53-7.27-1.53-5.47 0-8.15 2.87-2.68 2.88-2.68 7.1 0 4.56 2.88 7.44 2.88 2.88 8.81 2.88q4.73 0 7.52-1.57 2.79-1.57 4.1-4.99 4.68 2.51 11.97 5.65-2.85 6.89-9.52 9.63-6.66 2.73-14.53 2.73"></path>
    <rect width="49.19" height="43.14" x="-24.59" y="-21.57" fill="none" rx="0" ry="0" transform="translate(30.38 22.5)"></rect>
    <path fill="#263aff" d="M104.8 15.42q0 4.96-2.42 8.38-2.42 3.42-8.29 4.95.68.92.97 1.43L104.29 43h-15.5q-2.51-4.67-7.93-13.22h-8.38V43H59.03q.46-11.05.46-20.69 0-9.63-.46-20.69h13.45v.06h11.69q11.51 0 16.07 3.7 4.56 3.71 4.56 10.04m-32.32-2.8v6.5h7.7q4.84 0 7.32-.31 2.48-.32 3.45-1 .97-.68.97-1.99 0-1.26-.91-1.94-.91-.69-3.42-.97-2.51-.29-7.41-.29Z"></path>
    <rect width="45.77" height="41.38" x="-22.89" y="-20.69" fill="none" rx="0" ry="0" transform="translate(82.42 22.81)"></rect>
    <path fill="#263aff" d="m157.24 1.62-1.08 1.66q-6.1 9.46-10.46 16.73-4.36 7.26-7.27 13.36V43h-14.87V32.4q-2.11-4.27-4.96-8.8-2.85-4.54-8.1-12.46-4.1-6.04-6.27-9.52h15.96q1.71 3.48 5.59 10.32 3.87 6.95 5.3 9.8 1.99-4.16 5.36-10.2 3.93-7.07 5.3-9.92Z"></path>
    <rect width="53.01" height="41.38" x="-26.5" y="-20.69" fill="none" rx="0" ry="0" transform="translate(131.24 22.81)"></rect>
    <path fill="#263aff" d="M186.14 1.68q11.34 0 15.79 4.02 4.45 4.02 4.45 11.31 0 5.02-1.77 8.52-1.77 3.51-6.21 5.48-4.45 1.96-12.26 1.96h-11.85V43h-14.03q.46-11.05.46-20.69 0-9.63-.46-20.69h14.03v.06Zm-3.99 20.29q4.73 0 7.1-.37 2.36-.37 3.3-1.34.94-.97.94-2.85 0-1.88-.88-2.82t-3.25-1.28q-2.36-.34-7.21-.34h-7.86v9Z"></path>
    <rect width="46.12" height="41.38" x="-23.06" y="-20.69" fill="none" rx="0" ry="0" transform="translate(183.82 22.81)"></rect>
    <path fill="#263aff" d="M257.05 13.59q-8.95-.28-17.39-.34V43h-14.25V13.25q-8.49.06-17.32.34V1.62h48.96Z"></path>
    <rect width="48.96" height="41.38" x="-24.48" y="-20.69" fill="none" rx="0" ry="0" transform="translate(233.07 22.81)"></rect>
    <path fill="#263aff" d="M283.55 43.57q-13.05 0-19.2-5.67-6.16-5.67-6.16-15.93 0-10.14 6.13-15.84 6.12-5.7 19.23-5.7 13.17 0 19.3 5.7 6.13 5.7 6.13 15.84 0 10.32-6.1 15.96-6.1 5.64-19.33 5.64m0-11.62q6.33 0 9.12-2.43 2.8-2.42 2.8-7.55 0-5.01-2.8-7.47-2.79-2.45-9.12-2.45-6.27 0-9.06 2.45-2.79 2.46-2.79 7.47 0 5.07 2.79 7.53 2.79 2.45 9.06 2.45"></path>
    <rect width="50.79" height="43.14" x="-25.39" y="-21.57" fill="none" rx="0" ry="0" transform="translate(284.08 22.5)"></rect>
    <path fill="#263aff" d="M339.41 1.68q11.35 0 15.79 4.02 4.45 4.02 4.45 11.31 0 5.02-1.77 8.52-1.76 3.51-6.21 5.48-4.45 1.96-12.26 1.96h-11.85V43h-14.02q.45-11.05.45-20.69 0-9.63-.45-20.69h14.02v.06Zm-3.99 20.29q4.74 0 7.1-.37 2.37-.37 3.31-1.34.94-.97.94-2.85 0-1.88-.89-2.82-.88-.94-3.25-1.28-2.36-.34-7.21-.34h-7.86v9Z"></path>
    <rect width="46.11" height="41.38" x="-23.05" y="-20.69" fill="none" rx="0" ry="0" transform="translate(337.1 22.81)"></rect>
    <path fill="#263aff" d="M397.95 1.57h14.14v22.68q-.11 8.38-5.73 13.85-5.61 5.47-18.89 5.47-13.46 0-18.42-5.21-4.95-5.22-4.84-13.71V1.57h14.14v22.17q0 2.51.37 4.07.37 1.57 2.39 2.94 2.02 1.37 6.53 1.37 4.9 0 7.18-1.4 2.28-1.4 2.71-3.11.42-1.71.42-4.38Z"></path>
    <rect width="47.91" height="42" x="-23.95" y="-21" fill="none" rx="0" ry="0" transform="translate(388.64 23.07)"></rect>
    <path fill="#263aff" d="M430.56 31.49q16.53-.11 27.36-.57-.74 2.91-.91 5.59-.18 2.68-.18 6.49h-40.18q.46-11.05.46-20.69 0-9.63-.46-20.69h13.91Z"></path>
    <rect width="41.27" height="41.38" x="-20.64" y="-20.69" fill="none" rx="0" ry="0" transform="translate(437.79 22.81)"></rect>
    <path fill="#263aff" d="M460.2 38.1q1.94-2.9 3.22-5.41 1.28-2.51 2.48-5.82 4.04 2.34 9.4 3.65t9.98 1.31q4.73 0 6.67-.82 1.93-.83 1.93-1.8 0-3.48-10.6-3.48-11.63 0-16.87-2.42t-5.24-7.84q0-7.69 6.38-11.34Q473.93.48 484.14.48q5.93 0 12.17 1.51t11.25 4.14q-1.65 3.76-3.47 9.17-.34 1.14-.57 1.71-2.91-2.33-8.78-3.9-5.87-1.57-10.37-1.57-5.42 0-7.3.71-1.88.72-1.88 2.08 0 1.37 2.59 2.2 2.6.82 7.5.82 12.08 0 17.55 2.77 5.48 2.76 5.48 8.46 0 7.98-5.82 11.49-5.81 3.5-17.61 3.5-6.33 0-12.88-1.39-6.56-1.4-11.8-4.08"></path>
    <rect width="48.11" height="43.09" x="-24.05" y="-21.55" fill="none" rx="0" ry="0" transform="translate(484.75 22.52)"></rect>
    <path fill="#263aff" d="M526.32 32.57q21.66-.11 31.4-.62-.39 2.33-.48 4.81-.09 2.48-.09 6.24h-44.28q.45-11.05.45-20.69 0-9.63-.45-20.69h44.28v10.32h-30.83v5.47q2.73.06 8.09.06 9.06 0 18.75-.34v9.8q-9.69-.34-18.75-.34-5.36 0-8.09.06Z"></path>
    <rect width="44.85" height="41.38" x="-22.43" y="-20.69" fill="none" rx="0" ry="0" transform="translate(535.8 22.81)"></rect>
  </svg>
</svg>
