
<svg xmlns="http://www.w3.org/2000/svg" xml:space="preserve" viewBox="148 378 500 45">
    <path fill="#263aff" d="M148.99 421.57q-12.89 0-18.98-5.47-6.1-5.47-6.1-15.62 0-10.2 6.1-16.13 6.09-5.92 18.98-5.92 18.01 0 24.11 12.36-5.13 1.77-12.03 5.31-1.65-3.2-5.22-4.74-3.56-1.53-7.26-1.53-5.47 0-8.15 2.87-2.68 2.88-2.68 7.1 0 4.56 2.88 7.44 2.87 2.88 8.8 2.88 4.73 0 7.53-1.57 2.79-1.57 4.1-4.99 4.67 2.51 11.97 5.65-2.85 6.89-9.52 9.63-6.67 2.73-14.53 2.73"/>
    <path fill="#263aff" d="M223.43 393.42q0 4.96-2.42 8.38-2.43 3.42-8.3 4.95.69.92.97 1.43l9.24 12.82h-15.51q-2.51-4.67-7.92-13.22h-8.38V421h-13.45q.45-11.05.45-20.69 0-9.63-.45-20.69h13.45v.06h11.68q11.52 0 16.08 3.7 4.56 3.71 4.56 10.04m-32.32-2.8v6.5h7.69q4.85 0 7.33-.31 2.48-.32 3.45-1 .97-.68.97-1.99 0-1.26-.92-1.94-.91-.69-3.42-.97-2.5-.29-7.41-.29Z"/>
    <path fill="#263aff" d="m275.87 379.62-1.08 1.66q-6.1 9.46-10.46 16.73-4.36 7.26-7.27 13.36V421h-14.88v-10.6q-2.11-4.27-4.96-8.8-2.85-4.54-8.09-12.46-4.11-6.04-6.27-9.52h15.96q1.71 3.48 5.58 10.32 3.88 6.95 5.31 9.8 1.99-4.16 5.35-10.2 3.94-7.07 5.3-9.92Z"/>
    <path fill="#263aff" d="M304.77 379.68q11.34 0 15.79 4.02 4.44 4.02 4.44 11.31 0 5.02-1.76 8.52-1.77 3.51-6.22 5.48-4.44 1.96-12.25 1.96h-11.86V421h-14.02q.46-11.05.46-20.69 0-9.63-.46-20.69h14.02v.06Zm-3.99 20.29q4.73 0 7.09-.37 2.37-.37 3.31-1.34.94-.97.94-2.85 0-1.88-.88-2.82-.89-.94-3.25-1.28-2.37-.34-7.21-.34h-7.87v9Z"/>
    <path fill="#263aff" d="M375.68 391.59q-8.95-.28-17.39-.34V421h-14.25v-29.75q-8.49.06-17.33.34v-11.97h48.97Z"/>
    <path fill="#263aff" d="M402.18 421.57q-13.05 0-19.21-5.67-6.15-5.67-6.15-15.93 0-10.14 6.12-15.84 6.13-5.7 19.24-5.7 13.17 0 19.29 5.7 6.13 5.7 6.13 15.84 0 10.32-6.1 15.96-6.1 5.64-19.32 5.64m0-11.62q6.33 0 9.12-2.43 2.79-2.42 2.79-7.55 0-5.01-2.79-7.47-2.79-2.45-9.12-2.45-6.27 0-9.06 2.45-2.8 2.46-2.8 7.47 0 5.07 2.8 7.53 2.79 2.45 9.06 2.45"/>
    <path fill="#263aff" d="M458.04 379.68q11.34 0 15.79 4.02 4.45 4.02 4.45 11.31 0 5.02-1.77 8.52-1.77 3.51-6.21 5.48-4.45 1.96-12.26 1.96h-11.86V421h-14.02q.46-11.05.46-20.69 0-9.63-.46-20.69h14.02v.06Zm-3.99 20.29q4.73 0 7.1-.37 2.36-.37 3.3-1.34.94-.97.94-2.85 0-1.88-.88-2.82t-3.25-1.28q-2.36-.34-7.21-.34h-7.87v9Z"/>
    <path fill="#263aff" d="M516.58 379.57h14.14v22.68q-.12 8.38-5.73 13.85-5.62 5.47-18.9 5.47-13.45 0-18.41-5.21-4.96-5.22-4.84-13.71v-23.08h14.13v22.17q0 2.51.37 4.07.37 1.57 2.4 2.94 2.02 1.37 6.52 1.37 4.9 0 7.18-1.4 2.28-1.4 2.71-3.11.43-1.71.43-4.38Z"/>
    <path fill="#263aff" d="M549.18 409.49q16.53-.11 27.36-.57-.74 2.91-.91 5.59-.17 2.68-.17 6.49h-40.18q.45-11.05.45-20.69 0-9.63-.45-20.69h13.9Z"/>
    <path fill="#263aff" d="M578.82 416.1q1.94-2.9 3.22-5.41 1.29-2.51 2.48-5.82 4.05 2.34 9.41 3.65t9.97 1.31q4.73 0 6.67-.82 1.94-.83 1.94-1.8 0-3.48-10.6-3.48-11.63 0-16.87-2.42-5.25-2.42-5.25-7.84 0-7.69 6.39-11.34 6.38-3.65 16.58-3.65 5.93 0 12.17 1.51t11.26 4.14q-1.65 3.76-3.48 9.17-.34 1.14-.57 1.71-2.9-2.33-8.77-3.9-5.88-1.57-10.38-1.57-5.41 0-7.29.71-1.89.72-1.89 2.08 0 1.37 2.6 2.2 2.59.82 7.49.82 12.09 0 17.56 2.77 5.47 2.76 5.47 8.46 0 7.98-5.81 11.49-5.82 3.5-17.62 3.5-6.32 0-12.88-1.39-6.55-1.4-11.8-4.08"/>
    <path fill="#263aff" d="M644.94 410.57q21.66-.11 31.41-.62-.4 2.33-.48 4.81-.09 2.48-.09 6.24h-44.29q.46-11.05.46-20.69 0-9.63-.46-20.69h44.29v10.32h-30.84v5.47q2.74.06 8.1.06 9.06 0 18.75-.34v9.8q-9.69-.34-18.75-.34-5.36 0-8.1.06Z"/>
</svg>
